<svg height="454pt" viewBox="0 -3 454.94625 454" width="454pt" xmlns="http://www.w3.org/2000/svg"><path d="m178.035156 131.8125-3.832031-13.664062-105.890625-105.960938c-15.632812-15.625-40.972656-15.617188-56.597656.015625s-15.617188 40.976563.015625 56.601563l105.511719 105.519531 14.214843 4.214843c3.300781.980469 5.605469 3.960938 5.722657 7.398438l.6875 20.210938 2.671874 2.671874 67.839844-67.882812-3.015625-3.015625-19.738281-.269531c-3.542969-.050782-6.632812-2.425782-7.589844-5.839844zm0 0"/><path d="m14.273438 445.914062c1.5 1.507813 3.539062 2.351563 5.664062 2.351563s4.164062-.84375 5.664062-2.351563l192.976563-192.902343-22.679687-22.6875-192.902344 192.984375c-1.523438 1.484375-2.382813 3.519531-2.382813 5.648437 0 2.125.859375 4.160157 2.382813 5.644531zm0 0"/><path d="m229.855469 196.371094 61.015625-61.015625 22.683594 22.683593-61.015626 61.015626zm0 0"/><path d="m426.074219 443.699219 13.351562-13.351563-17.808593-26.71875-15.566407-7.777344-14.472656 14.472657 7.785156 15.566406zm0 0"/><path d="m180.089844 191.890625 11.328125-11.332031 203.644531 203.636718-11.328125 11.332032zm0 0"/><path d="m437.003906 126.402344h-27.3125c-2.121094 0-4.15625-.84375-5.65625-2.34375l-11.320312-11.3125c-3.125-3.121094-3.125-8.1875 0-11.3125l11.320312-11.316406-38.6875-38.683594c-6.945312-6.933594-15.585937-11.925782-25.066406-14.476563l-.886719-.242187c-22.667969-6.058594-46.429687-6.820313-69.441406-2.214844l-27.085937 4.617188 20.800781 3.46875c20.230469 3.980468 38.820312 13.898437 53.390625 28.488281l2.078125 2.074219c3.125 3.121093 3.125 8.1875 0 11.3125l-28.285157 28.285156 39.613282 39.5625c.050781.046875.066406.117187.113281.167968l5.527344 5.527344 22.671875-22.632812c3.125-3.121094 8.1875-3.121094 11.3125 0l11.320312 11.3125c1.5 1.5 2.34375 3.535156 2.34375 5.65625v27.320312c0 2.121094.839844 4.152344 2.335938 5.65625l12.289062 12.285156 56.566406-56.574218-12.277343-12.28125c-1.5-1.507813-3.539063-2.351563-5.664063-2.34375zm0 0"/></svg>