<svg height="512" viewBox="0 0 128 128" width="512" xmlns="http://www.w3.org/2000/svg"><g id="Layer_2" fill="rgb(0,0,0)" data-name="Layer 2"><path d="m71.4 63.489a7 7 0 1 0 -7-7 7 7 0 0 0 7 7zm0-10.489a3.5 3.5 0 1 1 -3.5 3.5 3.5 3.5 0 0 1 3.5-3.5z"/><path d="m38.3 54.767a1.75 1.75 0 0 0 1.75-1.75v-9.25a1.75 1.75 0 0 0 -3.5 0v9.25a1.751 1.751 0 0 0 1.75 1.75z"/><path d="m38.3 84.034a1.75 1.75 0 0 0 -1.75 1.75v9.25a1.75 1.75 0 0 0 3.5 0v-9.25a1.749 1.749 0 0 0 -1.75-1.75z"/><path d="m38.3 105.042a1.751 1.751 0 0 0 -1.75 1.75v9.25a1.75 1.75 0 0 0 3.5 0v-9.25a1.75 1.75 0 0 0 -1.75-1.75z"/><path d="m105.945 94.962a1.751 1.751 0 0 0 -1.75 1.75v9.2a1.75 1.75 0 0 0 3.5 0v-9.2a1.75 1.75 0 0 0 -1.75-1.75z"/><path d="m43.76 25.633h-3.709v-2.875a1.75 1.75 0 1 0 -3.5 0v2.875h-3.708a1.75 1.75 0 0 0 0 3.5h3.708v2.875a1.75 1.75 0 0 0 3.5 0v-2.875h3.709a1.75 1.75 0 0 0 0-3.5z"/><path d="m63.936 29.133h10.917a1.75 1.75 0 0 0 0-3.5h-10.917a1.75 1.75 0 0 0 0 3.5z"/><path d="m95.029 29.133h10.916a1.75 1.75 0 0 0 0-3.5h-10.916a1.75 1.75 0 0 0 0 3.5z"/><path d="m101.758 84.625h2.442v.959a1.75 1.75 0 0 0 3.5 0v-.959h2.438a1.75 1.75 0 0 0 0-3.5h-8.375a1.75 1.75 0 1 0 0 3.5z"/><path d="m43.76 68.847h-3.709v-4.072a1.75 1.75 0 1 0 -3.5 0v4.072h-3.708a1.75 1.75 0 0 0 0 3.5h3.708v1.678a1.75 1.75 0 0 0 3.5 0v-1.678h3.709a1.75 1.75 0 1 0 0-3.5z"/><path d="m126.25 39.422a1.751 1.751 0 0 0 1.75-1.75v-20a1.751 1.751 0 0 0 -1.75-1.75h-76.2v-14.172a1.75 1.75 0 0 0 -1.75-1.75h-20a1.751 1.751 0 0 0 -1.75 1.75v14.172h-24.8a1.751 1.751 0 0 0 -1.75 1.75v20a1.751 1.751 0 0 0 1.75 1.75h24.8v19.425h-24.8a1.751 1.751 0 0 0 -1.75 1.753v20a1.751 1.751 0 0 0 1.75 1.75h24.8v43.9a1.751 1.751 0 0 0 1.75 1.75h20a1.75 1.75 0 0 0 1.75-1.75v-43.9h3.228a10.309 10.309 0 0 1 7.336 3.038 33.646 33.646 0 0 0 23.953 9.922h9.515v30.94a1.751 1.751 0 0 0 1.75 1.75h20a1.75 1.75 0 0 0 1.75-1.75v-30.943h8.667a1.751 1.751 0 0 0 1.75-1.75v-20a1.751 1.751 0 0 0 -1.75-1.75h-41.681a10.31 10.31 0 0 1 -6.087-2c.149-.439.291-.88.422-1.321a14.159 14.159 0 1 0 -21.403-9.364 34.154 34.154 0 0 0 -4.219-.275h-3.23v-19.425zm-54.85 6.417a10.651 10.651 0 0 1 5.161 19.97 1.75 1.75 0 0 0 -.839 1.069 48.293 48.293 0 0 1 -4.322 10.194 48.128 48.128 0 0 1 -4.32-10.194 1.749 1.749 0 0 0 -.839-1.069 10.817 10.817 0 0 1 -4.649-5.17 10.648 10.648 0 0 1 9.809-14.8zm-23.1 16.508h4.978a30.747 30.747 0 0 1 5.478.5 14.311 14.311 0 0 0 5.144 5.643 59.921 59.921 0 0 0 5.561 12.268c.463.784.942 1.605 1.982 1.573a1.918 1.918 0 0 0 1.593-1.063 67.225 67.225 0 0 0 4.156-8.1 13.787 13.787 0 0 0 7.376 2.135h39.932v6.5h-3.563a1.75 1.75 0 0 0 0 3.5h3.563v6.5h-8.667a1.751 1.751 0 0 0 -1.75 1.75v30.947h-6.383v-7.455a1.75 1.75 0 0 0 -3.5 0v7.455h-6.617v-30.943a1.75 1.75 0 0 0 -1.75-1.75h-11.265a30.177 30.177 0 0 1 -21.479-8.9 13.784 13.784 0 0 0 -9.81-4.063h-4.979a1.751 1.751 0 0 0 -1.75 1.75v43.9h-16.5v-43.894a1.75 1.75 0 0 0 -1.75-1.75h-24.8v-6.5h9.167a1.75 1.75 0 1 0 0-3.5h-9.167v-6.5h24.8a1.75 1.75 0 0 0 1.75-1.75v-22.928a1.75 1.75 0 0 0 -1.75-1.75h-24.8v-6.789h9.167a1.75 1.75 0 0 0 0-3.5h-9.167v-6.211h24.8a1.75 1.75 0 0 0 1.75-1.75v-14.172h6.5v7.5a1.75 1.75 0 0 0 3.5 0v-7.5h6.5v14.172a1.751 1.751 0 0 0 1.75 1.75h76.2v16.5h-76.2a1.751 1.751 0 0 0 -1.75 1.75v22.928a1.751 1.751 0 0 0 1.75 1.747z"/></g></svg>