<?xml version="1.0" encoding="iso-8859-1"?>
<!-- Generator: Adobe Illustrator 19.0.0, SVG Export Plug-In . SVG Version: 6.00 Build 0)  -->
<svg version="1.1" id="Layer_1" xmlns="http://www.w3.org/2000/svg" xmlns:xlink="http://www.w3.org/1999/xlink" x="0px" y="0px"
	 viewBox="0 0 512 512" style="enable-background:new 0 0 512 512;" xml:space="preserve">
<g>
	<g>
		<path d="M404.918,144.068c-0.844-1.789-2.363-3.169-4.224-3.838l-74.667-26.811c-3.871-1.388-8.144,0.621-9.537,4.497
			l-18.051,50.252c-0.668,1.861-0.57,3.912,0.272,5.701c0.844,1.789,2.363,3.169,4.224,3.838l74.675,26.818
			c0.816,0.293,1.669,0.438,2.52,0.438c1.09,0,2.175-0.239,3.18-0.712c1.789-0.844,3.169-2.363,3.837-4.225l18.043-50.259
			C405.861,147.907,405.762,145.857,404.918,144.068z M326.106,170.183l-11.112-3.991l13.01-36.218l11.106,3.989L326.106,170.183z
			 M350.483,178.938l-10.347-3.716l13.007-36.219l10.351,3.717L350.483,178.938z M375.632,187.969l-11.113-3.991l13.01-36.218
			l11.108,3.988L375.632,187.969z"/>
	</g>
</g>
<g>
	<g>
		<path d="M72.711,436.283c-4.122-4.122-9.602-6.393-15.43-6.393c-5.828,0-11.307,2.271-15.429,6.393
			c-4.12,4.119-6.387,9.597-6.386,15.425c0.001,5.827,2.272,11.306,6.393,15.426c4.119,4.119,9.595,6.387,15.422,6.387
			c5.827,0,11.304-2.268,15.422-6.387c4.121-4.121,6.391-9.6,6.393-15.426C79.096,445.88,76.83,440.402,72.711,436.283z
			 M62.159,456.59c-1.302,1.302-3.033,2.018-4.876,2.018c-1.843,0-3.575-0.717-4.878-2.019c-1.305-1.305-2.024-3.04-2.025-4.884
			c0-1.843,0.716-3.575,2.017-4.876c1.305-1.305,3.04-2.024,4.884-2.024c1.844,0,3.579,0.719,4.884,2.024
			c1.301,1.302,2.018,3.034,2.018,4.878C64.184,453.549,63.464,455.285,62.159,456.59z"/>
	</g>
</g>
<g>
	<g>
		<path d="M486.279,39.196c-1.737-1.964-4.372-2.872-6.952-2.391c-2.577,0.48-4.712,2.279-5.624,4.735l-31.404,84.611
			L331.739,85.226c7.723-30.15,30.73-53.766,60.271-62.462l-22.713,61.808c-1.421,3.865,0.562,8.15,4.427,9.57
			c3.866,1.423,8.15-0.561,9.571-4.427l27.379-74.506c0.904-2.461,0.449-5.216-1.197-7.255c-1.645-2.04-4.249-3.063-6.838-2.701
			c-41.041,5.759-74.217,35.342-84.947,74.773l-23.85-8.828c-2.061-0.762-4.359-0.577-6.272,0.511
			c-1.913,1.088-3.248,2.964-3.648,5.128l-11.25,60.896c-2.145,11.608-7.687,22.152-16.029,30.493l-71.317,71.315l-4.875-4.875
			c-2.912-2.913-7.633-2.912-10.544,0c-2.912,2.912-2.912,7.633,0,10.544l4.877,4.878L94.418,330.45
			c-2.912,2.912-2.912,7.633,0,10.544c1.456,1.456,3.364,2.184,5.272,2.184s3.817-0.728,5.272-2.184l80.364-80.363l60.855,60.856
			L88.371,479.299c-8.13,8.13-18.935,12.607-30.425,12.607s-22.297-4.48-30.431-12.614c-8.126-8.128-12.602-18.932-12.602-30.425
			s4.476-22.298,12.602-30.424l60.546-60.546c2.912-2.912,2.912-7.633,0-10.544c-2.912-2.912-7.633-2.912-10.544,0l-60.546,60.546
			C6.027,418.841,0,433.391,0,448.867s6.027,30.026,16.971,40.969c10.951,10.952,25.504,16.983,40.976,16.983
			s30.022-6.029,40.969-16.976l157.811-157.811l5.571,5.571c1.456,1.456,3.364,2.184,5.273,2.184c1.908,0,3.817-0.728,5.272-2.184
			c2.913-2.912,2.913-7.632,0.001-10.544l-5.571-5.571l67.175-67.176c4.898-4.897,10.601-8.73,16.958-11.395l30.871-12.986
			c3.796-1.597,5.578-5.968,3.982-9.764c-1.596-3.796-5.968-5.58-9.764-3.982l-30.864,12.982c-8.142,3.414-15.453,8.326-21.727,14.6
			l-67.175,67.176l-60.858-60.857l71.317-71.315c10.486-10.484,17.453-23.738,20.149-38.328l9.641-52.184l147.131,54.466
			c3.863,1.429,8.147-0.539,9.58-4.397l29.288-78.909c22.254,34.257,18.079,80.44-11.635,110.153
			c-5.583,5.585-10.752,9.693-15.787,12.552c-3.039,1.716-30.021,13.435-30.021,13.435l-27.12,11.408
			c-3.796,1.597-5.578,5.968-3.982,9.764c1.596,3.796,5.967,5.578,9.764,3.982l37.149-15.626c0.063-0.025,0.124-0.051,0.186-0.078
			c1.678-0.727,16.534-7.177,21.373-9.909c6.231-3.538,12.44-8.439,18.985-14.983C520.273,141.728,522.203,79.829,486.279,39.196z"
			/>
	</g>
</g>
<g>
</g>
<g>
</g>
<g>
</g>
<g>
</g>
<g>
</g>
<g>
</g>
<g>
</g>
<g>
</g>
<g>
</g>
<g>
</g>
<g>
</g>
<g>
</g>
<g>
</g>
<g>
</g>
<g>
</g>
</svg>
